<mxfile host="app.diagrams.net" modified="2023-11-16T03:37:49.057Z" agent="Mozilla/5.0 (Windows NT 10.0; Win64; x64) AppleWebKit/537.36 (KHTML, like Gecko) Chrome/114.0.0.0 Safari/537.36 Edg/114.0.1823.43" version="22.1.2" etag="Km3hh55Wi_T7kibCYY8r" type="github">
  <diagram name="第 1 页" id="BHudBMk0eO3V-7AMpbIP">
    <mxGraphModel>
      <root>
        <mxCell id="0" />
        <mxCell id="1" parent="0" />
      </root>
    </mxGraphModel>
  </diagram>
</mxfile>
